<?xml version="1.0" standalone="no"?>
<!DOCTYPE svg PUBLIC "-//W3C//DTD SVG 20010904//EN"
 "http://www.w3.org/TR/2001/REC-SVG-20010904/DTD/svg10.dtd">
<svg version="1.0" xmlns="http://www.w3.org/2000/svg"
 width="300.000000pt" height="210.000000pt" viewBox="0 0 300.000000 210.000000"
 preserveAspectRatio="xMidYMid meet">
<metadata>
Created by potrace 1.10, written by Peter Selinger 2001-2011
</metadata>
<g transform="translate(0.000000,210.000000) scale(0.100000,-0.100000)"
fill="#000000" stroke="none">
<path d="M2620 2090 c-25 -5 -71 -9 -102 -9 -134 -2 -129 1 -1102 -506 l-683
-355 -280 145 c-154 80 -285 145 -292 145 -18 0 -114 -50 -138 -73 -44 -40
-34 -58 167 -309 105 -131 190 -241 190 -246 0 -5 -18 -17 -41 -27 -74 -34
-91 -98 -36 -139 l28 -21 501 167 c276 92 503 167 504 165 1 -1 -41 -72 -92
-157 -52 -85 -94 -162 -94 -171 0 -22 32 -49 60 -49 12 0 69 25 125 55 l103
55 290 302 290 303 363 189 c200 104 389 206 419 227 160 107 193 231 78 290
-48 25 -179 34 -258 19z"/>
<path d="M190 262 c-109 -48 -120 -190 -19 -244 32 -17 95 -18 1379 -18 1284
0 1347 1 1379 18 97 52 90 185 -11 238 -23 12 -235 14 -1370 13 -739 0 -1350
-3 -1358 -7z"/>
</g>
</svg>
