<?xml version="1.0" standalone="no"?>
<!DOCTYPE svg PUBLIC "-//W3C//DTD SVG 20010904//EN"
 "http://www.w3.org/TR/2001/REC-SVG-20010904/DTD/svg10.dtd">
<svg version="1.0" xmlns="http://www.w3.org/2000/svg"
 width="174.000000pt" height="184.000000pt" viewBox="0 0 174.000000 184.000000"
 preserveAspectRatio="xMidYMid meet">
<metadata>
Created by potrace 1.10, written by Peter Selinger 2001-2011
</metadata>
<g transform="translate(0.000000,184.000000) scale(0.100000,-0.100000)"
fill="#000000" stroke="none">
<path d="M1215 1824 c-102 -53 -133 -154 -79 -263 30 -60 83 -100 141 -107
103 -13 202 126 179 251 -8 43 -59 103 -103 121 -43 18 -101 17 -138 -2z"/>
<path d="M190 1550 l0 -100 -45 0 -44 0 -3 -57 -3 -58 -47 -3 -48 -3 0 -575 0
-574 488 2 487 3 3 247 2 248 -30 0 c-49 0 -90 27 -110 73 -16 36 -17 53 -10
112 5 39 9 109 10 158 0 51 4 87 10 87 6 0 10 16 10 35 0 32 -2 35 -30 35 -30
0 -30 0 -30 60 l0 60 -85 0 -85 0 0 -60 0 -60 -39 0 c-25 0 -41 -5 -45 -15 -4
-10 -20 -15 -51 -15 l-45 0 0 -460 c0 -453 0 -460 -20 -460 -20 0 -20 7 -20
549 l0 550 -47 3 -48 3 -3 58 -3 57 -44 0 -45 0 0 100 c0 82 -3 100 -15 100
-12 0 -15 -18 -15 -100z m100 -170 l0 -50 -85 0 -85 0 0 50 0 50 85 0 85 0 0
-50z m-150 -175 l0 -75 -45 0 -45 0 0 75 0 75 45 0 45 0 0 -75z m110 0 l0 -75
-45 0 -45 0 0 75 0 75 45 0 45 0 0 -75z m520 25 l0 -40 -60 0 -60 0 0 40 0 40
60 0 60 0 0 -40z m-520 -200 l0 -80 -45 0 -45 0 0 73 c0 41 3 77 7 80 3 4 24
7 45 7 l38 0 0 -80z m110 0 l0 -80 -45 0 -45 0 0 73 c0 41 3 77 7 80 3 4 24 7
45 7 l38 0 0 -80z m340 0 l0 -80 -45 0 -45 0 0 73 c0 41 3 77 7 80 3 4 24 7
45 7 l38 0 0 -80z m-562 -182 l3 -78 -46 0 -45 0 0 81 0 80 43 -3 42 -3 3 -77z
m222 2 l0 -80 -45 0 -45 0 0 73 c0 41 3 77 7 80 3 4 24 7 45 7 l38 0 0 -80z
m230 0 l0 -80 -45 0 -45 0 0 80 0 80 45 0 45 0 0 -80z m220 0 l0 -80 -40 0
-40 0 0 80 0 80 40 0 40 0 0 -80z m-672 -182 l3 -78 -46 0 -45 0 0 81 0 80 43
-3 42 -3 3 -77z m222 1 l0 -80 -42 3 -43 3 -3 64 c-4 84 -1 91 48 91 l40 0 0
-81z m340 1 l0 -80 -45 0 -45 0 0 73 c0 41 3 77 7 80 3 4 24 7 45 7 l38 0 0
-80z m110 0 l0 -80 -40 0 -40 0 0 80 0 80 40 0 40 0 0 -80z m-670 -180 l0 -80
-45 0 -45 0 0 80 0 80 45 0 45 0 0 -80z m110 0 l0 -80 -45 0 -45 0 0 80 0 80
45 0 45 0 0 -80z m110 -1 l0 -80 -42 3 -43 3 -3 64 c-4 84 -1 91 48 91 l40 0
0 -81z m230 1 l0 -80 -45 0 -45 0 0 80 0 80 45 0 45 0 0 -80z m220 0 l0 -80
-40 0 -40 0 0 80 0 80 40 0 40 0 0 -80z m120 0 l0 -80 -45 0 -45 0 0 80 0 80
45 0 45 0 0 -80z m-680 -180 l0 -80 -45 0 -45 0 0 80 0 80 45 0 45 0 0 -80z
m450 -1 l0 -80 -42 3 -43 3 -3 78 -3 77 46 0 45 0 0 -81z m110 1 l0 -80 -40 0
-40 0 0 80 0 80 40 0 40 0 0 -80z"/>
<path d="M1198 1428 c-66 -8 -169 -34 -215 -53 -42 -18 -47 -37 -79 -334 -20
-182 -23 -249 -15 -267 19 -43 103 -44 121 -1 7 16 60 444 60 483 0 2 5 4 10
4 20 0 11 -458 -15 -780 -36 -442 -36 -427 -2 -456 36 -31 77 -31 111 1 14 13
26 28 26 32 0 5 11 146 25 313 14 168 25 311 25 318 0 7 14 12 35 12 19 0 35
-3 35 -6 0 -61 53 -626 61 -645 11 -27 46 -49 77 -49 25 0 62 28 72 55 5 14
-2 157 -21 381 -29 365 -41 824 -20 824 11 0 15 -27 41 -265 25 -237 24 -231
61 -250 38 -20 33 -38 -12 -45 l-34 -5 0 -235 0 -235 95 0 95 0 0 235 0 235
-37 3 c-43 4 -50 25 -21 68 15 24 15 41 -12 287 -16 144 -32 272 -37 285 -12
35 -123 74 -256 91 -61 7 -63 7 -69 -17 -3 -14 4 -105 16 -203 l22 -178 -27
-46 c-29 -50 -30 -50 -63 10 l-21 40 23 182 c28 220 28 222 -55 211z"/>
</g>
</svg>
