<?xml version="1.0" standalone="no"?>
<!DOCTYPE svg PUBLIC "-//W3C//DTD SVG 20010904//EN"
 "http://www.w3.org/TR/2001/REC-SVG-20010904/DTD/svg10.dtd">
<svg version="1.0" xmlns="http://www.w3.org/2000/svg"
 width="128.000000pt" height="128.000000pt" viewBox="0 0 128.000000 128.000000"
 preserveAspectRatio="xMidYMid meet">
<metadata>
Created by potrace 1.10, written by Peter Selinger 2001-2011
</metadata>
<g transform="translate(0.000000,128.000000) scale(0.100000,-0.100000)"
fill="#000000" stroke="none">
<path d="M1065 1189 c-110 -45 -202 -83 -205 -86 -3 -3 12 -20 33 -38 20 -17
37 -36 37 -41 0 -5 -85 -97 -189 -204 l-189 -195 -79 77 -78 78 -198 -204
-197 -204 0 -97 0 -98 197 202 196 202 79 -78 79 -78 112 115 c62 63 172 178
245 254 l133 140 38 -44 38 -44 76 195 c42 107 79 202 83 212 3 9 2 17 -2 17
-5 -1 -99 -37 -209 -81z"/>
<path d="M923 685 l-93 -103 0 -291 0 -291 95 0 95 0 0 395 c0 217 -1 395 -2
394 -2 0 -45 -47 -95 -104z"/>
<path d="M647 422 l-87 -87 0 -168 0 -167 95 0 95 0 0 255 c0 140 -3 255 -8
255 -4 0 -47 -39 -95 -88z"/>
<path d="M328 430 l-48 -58 0 -186 0 -186 95 0 95 0 0 183 0 182 -40 63 c-22
34 -43 62 -47 61 -5 0 -29 -26 -55 -59z"/>
<path d="M102 177 c-93 -93 -102 -106 -102 -140 l0 -37 105 0 105 0 0 140 c0
77 -1 140 -3 140 -1 0 -48 -46 -105 -103z"/>
</g>
</svg>
