<?xml version="1.0" standalone="no"?>
<!DOCTYPE svg PUBLIC "-//W3C//DTD SVG 20010904//EN"
 "http://www.w3.org/TR/2001/REC-SVG-20010904/DTD/svg10.dtd">
<svg version="1.0" xmlns="http://www.w3.org/2000/svg"
 width="300.000000pt" height="178.000000pt" viewBox="0 0 300.000000 178.000000"
 preserveAspectRatio="xMidYMid meet">
<metadata>
Created by potrace 1.10, written by Peter Selinger 2001-2011
</metadata>
<g transform="translate(0.000000,178.000000) scale(0.100000,-0.100000)"
fill="#000000" stroke="none">
<path d="M43 1769 c-40 -12 -48 -38 -39 -117 17 -142 101 -506 158 -684 24
-73 40 -105 65 -129 33 -33 33 -33 168 -39 74 -3 137 -9 140 -12 3 -3 8 -104
10 -224 2 -121 7 -297 11 -391 l6 -173 424 0 424 0 0 302 c0 290 -16 546 -40
638 -16 61 -57 90 -154 110 -47 9 -86 16 -86 15 0 -1 8 -17 18 -36 14 -29 17
-69 20 -274 3 -208 6 -242 20 -259 14 -15 17 -41 17 -166 0 -175 -2 -180 -81
-180 -30 0 -54 5 -54 10 0 6 19 10 43 10 24 0 48 5 55 12 18 18 17 282 -2 297
-9 8 -81 11 -237 9 l-224 -3 -3 -153 -3 -152 31 -6 c38 -8 39 -24 2 -24 -55 0
-62 21 -62 182 0 142 1 146 25 169 l25 24 0 215 c0 153 4 231 14 270 8 30 13
57 10 59 -2 2 -24 -2 -49 -9 -54 -15 -209 -8 -270 12 -42 14 -56 34 -91 128
-9 25 -20 54 -25 65 -4 11 -36 106 -69 210 -34 105 -67 204 -73 221 -23 69
-62 92 -124 73z m1092 -1339 c0 -22 -5 -25 -43 -28 -31 -2 -44 1 -48 12 -13
33 4 47 48 44 38 -3 43 -6 43 -28z m-137 -60 c111 -80 54 -250 -83 -250 -93 0
-162 91 -134 179 14 45 36 70 74 87 51 22 98 17 143 -16z"/>
<path d="M852 328 c-45 -49 -36 -113 20 -148 41 -25 74 -19 111 21 35 38 35
78 1 118 -21 26 -33 31 -68 31 -31 0 -48 -6 -64 -22z m116 -20 c7 -7 12 -21
11 -32 0 -20 -1 -20 -11 2 -6 12 -15 22 -20 22 -4 0 -8 5 -8 10 0 14 13 13 28
-2z"/>
<path d="M2185 1771 c-56 -14 -113 -50 -149 -92 -20 -24 -36 -46 -36 -50 0 -3
-19 -9 -42 -13 -80 -13 -131 -51 -97 -71 5 -4 58 -15 117 -25 59 -10 181 -32
272 -49 178 -34 387 -70 408 -71 27 0 9 37 -41 85 -39 36 -59 65 -73 104 -25
71 -81 133 -145 160 -55 24 -165 35 -214 22z"/>
<path d="M856 1713 c-67 -21 -144 -99 -170 -171 -37 -107 -5 -237 77 -308 62
-53 103 -67 187 -68 130 0 226 63 269 179 68 182 -55 372 -248 381 -41 2 -85
-3 -115 -13z"/>
<path d="M1967 1474 c-13 -13 -7 -91 10 -143 20 -62 69 -122 130 -158 66 -38
178 -44 251 -13 79 34 162 135 162 198 0 15 -12 21 -67 30 -38 6 -117 20 -178
31 -60 11 -146 27 -190 35 -44 8 -87 17 -96 21 -8 3 -18 2 -22 -1z"/>
<path d="M865 1083 c-16 -2 -38 -12 -49 -21 -41 -37 -46 -71 -46 -312 0 -198
2 -230 15 -230 8 0 15 7 15 15 0 20 39 20 46 0 5 -12 30 -15 140 -15 l134 0 0
227 c0 205 -2 231 -20 267 -11 23 -30 47 -42 55 -24 15 -139 23 -193 14z"/>
<path d="M2015 1051 c-38 -10 -68 -26 -85 -45 -11 -14 -9 -15 18 -10 24 5 48
-3 114 -39 45 -25 102 -54 124 -66 l42 -22 173 42 c96 23 178 45 182 49 11 10
-30 58 -66 78 -27 14 -65 17 -252 19 -121 1 -233 -2 -250 -6z"/>
<path d="M1795 891 l-130 -36 -3 -34 c-3 -33 -67 -126 -179 -258 -24 -28 -46
-65 -49 -82 -10 -49 14 -117 53 -151 40 -35 73 -38 126 -10 l37 20 0 -65 0
-65 38 16 c20 9 74 29 118 46 l81 30 174 -62 c96 -34 179 -63 184 -65 6 -1 47
4 90 12 44 7 91 16 105 18 14 2 59 11 100 20 69 14 232 45 238 45 1 0 2 16 2
35 l0 35 37 -20 c69 -37 128 -18 162 53 23 48 28 119 9 139 -7 7 -33 40 -58
73 -25 33 -50 65 -56 70 -5 6 -29 35 -52 66 -41 54 -42 58 -42 132 0 89 1 88
-98 62 -31 -8 -104 -25 -162 -39 -58 -13 -148 -34 -200 -46 l-95 -22 -117 61
c-80 42 -127 61 -150 60 -18 -1 -91 -18 -163 -38z m347 -101 l77 -39 88 19
c48 11 133 30 188 44 132 32 213 48 221 44 7 -3 12 -225 6 -246 -4 -10 -8 -10
-21 1 -9 8 -53 33 -97 56 -96 49 -153 55 -178 19 -39 -56 -13 -89 158 -207
129 -88 136 -95 136 -127 0 -40 8 -37 -266 -90 l-192 -37 -103 37 c-57 21
-141 52 -187 68 l-83 31 -83 -31 c-99 -38 -106 -39 -105 -9 2 49 16 70 75 110
34 23 96 66 138 95 98 68 128 122 89 164 -29 33 -86 23 -195 -32 l-98 -51 0
100 0 100 43 11 c23 6 71 20 107 30 111 32 88 37 282 -60z m-508 -236 c-11 -7
-24 -18 -31 -24 -14 -12 -33 -13 -33 -2 1 13 75 59 79 49 2 -6 -5 -16 -15 -23z
m1198 -12 c10 -8 15 -19 12 -23 -7 -12 -64 32 -64 49 0 15 5 12 52 -26z"/>
<path d="M1879 226 c0 -11 -3 -67 -5 -123 l-5 -103 381 0 380 0 0 38 c0 20 3
61 6 90 7 50 6 52 -17 52 -13 0 -67 -9 -119 -20 -202 -43 -232 -48 -258 -40
-15 5 -85 30 -157 55 -229 82 -205 76 -206 51z"/>
</g>
</svg>
