<?xml version="1.0" standalone="no"?>
<!DOCTYPE svg PUBLIC "-//W3C//DTD SVG 20010904//EN"
 "http://www.w3.org/TR/2001/REC-SVG-20010904/DTD/svg10.dtd">
<svg version="1.0" xmlns="http://www.w3.org/2000/svg"
 width="300.000000pt" height="438.000000pt" viewBox="0 0 300.000000 438.000000"
 preserveAspectRatio="xMidYMid meet">
<metadata>
Created by potrace 1.10, written by Peter Selinger 2001-2011
</metadata>
<g transform="translate(0.000000,438.000000) scale(0.100000,-0.100000)"
fill="#000000" stroke="none">
<path d="M1060 4364 c-45 -20 -87 -59 -111 -106 -18 -35 -19 -63 -19 -453 0
-389 1 -418 19 -453 22 -43 52 -72 101 -98 33 -18 64 -19 450 -19 406 0 416 0
455 22 46 24 76 55 99 100 14 28 16 85 16 448 0 390 -1 418 -19 453 -25 48
-66 87 -113 106 -55 23 -825 23 -878 0z m232 -191 c16 -14 18 -33 18 -145 l0
-128 190 0 190 0 0 127 c0 155 4 163 92 163 106 0 98 32 98 -380 l0 -359 -22
-15 c-13 -10 -43 -16 -73 -16 -30 0 -60 6 -73 16 -21 14 -22 22 -22 145 l0
129 -190 0 -190 0 0 -129 c0 -123 -1 -131 -22 -145 -13 -10 -43 -16 -73 -16
-30 0 -60 6 -73 16 l-22 15 0 359 c0 410 -8 379 94 380 42 0 65 -5 78 -17z"/>
<path d="M93 3809 c-34 -10 -80 -58 -88 -92 -3 -12 -4 -835 -3 -1829 l3 -1808
38 -37 37 -38 483 -3 482 -3 0 368 c0 410 -3 393 72 465 65 63 92 68 382 68
291 0 321 -5 385 -67 73 -72 71 -56 71 -466 l0 -368 482 3 483 3 37 38 38 37
3 1818 c2 1787 2 1818 -18 1849 -41 68 -37 68 -416 71 l-342 3 -4 -223 c-4
-202 -6 -228 -27 -280 -31 -79 -97 -150 -179 -190 l-67 -33 -445 0 -445 0 -67
33 c-81 40 -148 110 -180 190 -20 52 -22 77 -26 280 l-4 222 -326 -1 c-180 0
-341 -5 -359 -10z m556 -305 c18 -23 21 -41 21 -138 0 -160 -13 -171 -185
-164 -92 3 -98 5 -121 31 -22 26 -24 37 -24 128 0 100 13 151 42 162 7 3 66 6
130 6 114 1 117 1 137 -25z m1966 20 c32 -13 45 -59 45 -163 0 -91 -2 -102
-24 -128 -23 -26 -29 -28 -121 -31 -111 -5 -137 0 -165 30 -18 19 -20 35 -20
137 0 104 2 117 22 138 20 21 29 23 134 23 62 0 120 -3 129 -6z m-1970 -679
c24 -23 25 -30 25 -140 0 -113 -1 -117 -26 -140 -25 -23 -34 -25 -136 -25
-108 0 -110 0 -139 29 -28 29 -29 32 -29 131 0 158 11 169 168 170 107 0 114
-1 137 -25z m659 4 c25 -20 26 -23 26 -140 0 -114 -1 -121 -25 -144 -23 -24
-31 -25 -134 -25 -102 0 -112 2 -138 24 -28 24 -28 26 -28 139 0 108 1 117 24
141 24 25 29 26 136 26 98 0 116 -3 139 -21z m667 -5 c23 -24 24 -33 24 -141
0 -113 0 -115 -28 -139 -26 -22 -36 -24 -138 -24 -103 0 -111 1 -134 25 -24
23 -25 30 -25 144 0 117 1 120 26 140 23 18 41 21 139 21 107 0 112 -1 136
-26z m650 13 c31 -24 39 -56 39 -157 0 -99 -1 -102 -29 -131 -29 -29 -31 -29
-139 -29 -102 0 -111 2 -136 25 -25 23 -26 27 -26 140 0 110 1 117 25 140 23
24 30 25 137 25 73 -1 119 -5 129 -13z m-1976 -672 c24 -23 25 -30 25 -140 0
-110 -1 -117 -25 -140 -23 -24 -30 -25 -139 -25 l-114 0 -26 31 c-24 29 -26
37 -26 136 0 102 1 105 29 134 29 29 31 29 141 29 104 0 112 -1 135 -25z m659
4 c25 -20 26 -23 26 -140 0 -114 -1 -121 -25 -144 -23 -24 -31 -25 -134 -25
-102 0 -112 2 -138 24 -28 24 -28 25 -28 141 0 116 0 117 28 141 26 22 36 24
136 24 94 0 112 -3 135 -21z m663 -3 c28 -24 28 -25 28 -141 0 -116 0 -117
-28 -141 -26 -22 -36 -24 -136 -24 -94 0 -112 3 -135 21 -26 20 -26 22 -26
144 0 122 0 124 26 144 23 18 41 21 135 21 100 0 110 -2 136 -24z m664 -5 c28
-29 29 -32 29 -136 0 -104 -1 -107 -29 -136 -29 -29 -31 -29 -141 -29 -104 0
-112 1 -135 25 -24 23 -25 30 -25 140 0 110 1 117 25 140 23 24 31 25 135 25
110 0 112 0 141 -29z m-2002 -646 c16 -8 31 -22 35 -30 3 -9 6 -66 6 -126 0
-103 -1 -111 -25 -134 -23 -24 -30 -25 -137 -25 -157 1 -168 12 -168 170 0 99
1 102 29 131 29 28 32 29 131 29 69 0 110 -5 129 -15z m682 -14 c16 -20 19
-40 19 -141 0 -116 -1 -119 -26 -139 -23 -18 -41 -21 -139 -21 -107 0 -112 1
-136 26 -23 24 -24 33 -24 141 0 114 0 115 29 140 28 24 34 25 143 21 107 -3
116 -5 134 -27z m656 5 c28 -24 28 -26 28 -139 0 -108 -1 -117 -24 -141 -24
-25 -29 -26 -136 -26 -98 0 -116 3 -139 21 -25 20 -26 23 -26 135 0 64 5 124
11 135 16 31 45 38 156 38 94 1 104 -1 130 -23z m664 -5 c28 -29 29 -32 29
-131 0 -158 -11 -169 -168 -170 -107 0 -114 1 -137 25 -24 23 -25 30 -25 138
0 157 9 166 168 167 101 0 104 -1 133 -29z m-1987 -660 c25 -24 26 -29 26
-140 0 -104 -2 -117 -22 -138 -20 -21 -29 -23 -139 -23 -161 0 -163 1 -167
149 -5 167 9 182 175 178 92 -2 104 -4 127 -26z m1993 -5 c24 -28 25 -34 21
-143 -4 -152 -5 -153 -166 -153 -105 0 -118 2 -139 22 -21 20 -23 29 -23 138
0 108 2 118 23 137 33 31 43 32 155 30 101 -2 104 -3 129 -31z"/>
</g>
</svg>
