<?xml version="1.0" standalone="no"?>
<!DOCTYPE svg PUBLIC "-//W3C//DTD SVG 20010904//EN"
 "http://www.w3.org/TR/2001/REC-SVG-20010904/DTD/svg10.dtd">
<svg version="1.0" xmlns="http://www.w3.org/2000/svg"
 width="300.000000pt" height="210.000000pt" viewBox="0 0 300.000000 210.000000"
 preserveAspectRatio="xMidYMid meet">
<metadata>
Created by potrace 1.10, written by Peter Selinger 2001-2011
</metadata>
<g transform="translate(0.000000,210.000000) scale(0.100000,-0.100000)"
fill="#000000" stroke="none">
<path d="M341 2041 c-24 -24 -27 -41 -47 -271 -24 -287 -31 -360 -36 -365 -2
-3 -30 3 -61 12 -52 14 -58 14 -82 -1 -29 -19 -42 -59 -27 -90 7 -16 74 -53
238 -130 520 -246 714 -340 714 -346 0 -4 -57 -22 -127 -40 -213 -54 -223 -58
-234 -87 -18 -47 7 -66 136 -103 l116 -33 180 6 c99 4 287 12 417 18 l237 11
415 -122 c346 -102 430 -123 502 -127 107 -7 170 12 193 57 40 77 -5 169 -127
263 -44 34 -104 83 -133 108 -29 25 -76 58 -106 72 -88 41 -138 56 -1114 342
-313 91 -588 172 -610 179 l-40 12 -95 281 c-52 154 -100 291 -107 305 -9 20
-28 30 -81 47 -86 26 -97 26 -121 2z"/>
<path d="M190 262 c-109 -48 -120 -190 -19 -244 32 -17 95 -18 1379 -18 1284
0 1347 1 1379 18 97 52 90 185 -11 238 -23 12 -235 14 -1370 13 -739 0 -1350
-3 -1358 -7z"/>
</g>
</svg>
